<?xml version="1.0"?>
<svg xmlns="http://www.w3.org/2000/svg" height="512px" version="1.1" viewBox="-12 0 725 725" width="512px">
<g id="surface1">
<path d="M 300 300 L 400 300 L 400 375 L 300 375 Z M 300 300 " style=" fill-rule:nonzero;fill-opacity:1;" stroke="#3f51b5" fill="#3f51b5"/>
<path d="M 0 550 C 0 563.8125 11.191406 575 25 575 L 675 575 C 688.808594 575 700 563.8125 700 550 L 700 525 L 0 525 Z M 0 550 " style=" fill-rule:nonzero;fill-opacity:1;" stroke="#3f51b5" fill="#3f51b5"/>
<path d="M 125 300 L 225 300 L 225 375 L 125 375 Z M 125 300 " style=" fill-rule:nonzero;fill-opacity:1;" stroke="#3f51b5" fill="#3f51b5"/>
<path d="M 475 300 L 575 300 L 575 375 L 475 375 Z M 475 300 " style=" fill-rule:nonzero;fill-opacity:1;" stroke="#3f51b5" fill="#3f51b5"/>
<path d="M 300 150 L 400 150 L 400 225 L 300 225 Z M 300 150 " style=" fill-rule:nonzero;fill-opacity:1;" stroke="#3f51b5" fill="#3f51b5"/>
<path d="M 125 150 L 225 150 L 225 225 L 125 225 Z M 125 150 " style=" fill-rule:nonzero;fill-opacity:1;" stroke="#3f51b5" fill="#3f51b5"/>
<path d="M 698.125 115.589844 C 698.125 115.492188 698.125 115.375 698.039062 115.277344 C 696.929688 112.75 695.410156 110.425781 693.550781 108.394531 C 693.238281 108.050781 693 107.65625 692.675781 107.324219 C 692.351562 107 691.949219 106.761719 691.609375 106.449219 C 689.574219 104.589844 687.25 103.078125 684.722656 101.96875 L 684.414062 101.878906 C 681.425781 100.648438 678.226562 100.015625 675 100 L 650 100 L 650 475 L 625 475 L 625 25 C 625 11.195312 613.808594 0 600 0 L 100 0 C 86.191406 0 75 11.195312 75 25 L 75 475 L 50 475 L 50 100 L 25 100 C 11.191406 100 0 111.195312 0 125 L 0 500 L 700 500 L 700 125 C 699.996094 121.773438 699.355469 118.574219 698.125 115.589844 Z M 200 25 L 225 25 L 225 50 L 200 50 Z M 150 25 L 175 25 L 175 50 L 150 50 Z M 100 25 L 125 25 L 125 50 L 100 50 Z M 250 475 L 225 475 L 225 450 L 125 450 L 125 475 L 100 475 L 100 450 C 100 436.195312 111.191406 425 125 425 L 225 425 C 238.808594 425 250 436.195312 250 450 Z M 250 375 C 250 388.8125 238.808594 400 225 400 L 125 400 C 111.191406 400 100 388.8125 100 375 L 100 300 C 100 286.195312 111.191406 275 125 275 L 225 275 C 238.808594 275 250 286.195312 250 300 Z M 250 225 C 250 238.8125 238.808594 250 225 250 L 125 250 C 111.191406 250 100 238.8125 100 225 L 100 150 C 100 136.195312 111.191406 125 125 125 L 225 125 C 238.808594 125 250 136.195312 250 150 Z M 425 475 L 400 475 L 400 450 L 300 450 L 300 475 L 275 475 L 275 450 C 275 436.195312 286.191406 425 300 425 L 400 425 C 413.808594 425 425 436.195312 425 450 Z M 425 375 C 425 388.8125 413.808594 400 400 400 L 300 400 C 286.191406 400 275 388.8125 275 375 L 275 300 C 275 286.195312 286.191406 275 300 275 L 400 275 C 413.808594 275 425 286.195312 425 300 Z M 425 225 C 425 238.8125 413.808594 250 400 250 L 300 250 C 286.191406 250 275 238.8125 275 225 L 275 150 C 275 136.195312 286.191406 125 300 125 L 400 125 C 413.808594 125 425 136.195312 425 150 Z M 600 475 L 575 475 L 575 450 L 475 450 L 475 475 L 450 475 L 450 450 C 450 436.195312 461.191406 425 475 425 L 575 425 C 588.808594 425 600 436.195312 600 450 Z M 600 375 C 600 388.8125 588.808594 400 575 400 L 475 400 C 461.191406 400 450 388.8125 450 375 L 450 300 C 450 286.195312 461.191406 275 475 275 L 575 275 C 588.808594 275 600 286.195312 600 300 Z M 600 225 C 600 238.8125 588.808594 250 575 250 L 475 250 C 461.191406 250 450 238.8125 450 225 L 450 150 C 450 136.195312 461.191406 125 475 125 L 575 125 C 588.808594 125 600 136.195312 600 150 Z M 600 100 L 100 100 L 100 75 L 600 75 Z M 600 100 " style=" fill-rule:nonzero;fill-opacity:1;" stroke="#3f51b5" fill="#3f51b5"/>
<path d="M 403.199219 600 L 296.800781 600 L 266.800781 700 L 212.5 700 L 212.5 725 L 487.5 725 L 487.5 700 L 433.199219 700 Z M 403.199219 600 " style=" fill-rule:nonzero;fill-opacity:1;" stroke="#3f51b5" fill="#3f51b5"/>
<path d="M 475 150 L 575 150 L 575 225 L 475 225 Z M 475 150 " style=" fill-rule:nonzero;fill-opacity:1;" stroke="#3f51b5" fill="#3f51b5"/>
</g>
</svg>
